<svg width="21" height="72" viewBox="0 0 21 72" fill="none" xmlns="http://www.w3.org/2000/svg">
<path d="M6.42 19.2C5.18 19.2 4.14 19.02 3.3 18.66C2.47333 18.2867 1.84 17.8067 1.4 17.22C0.973333 16.62 0.746667 15.9933 0.72 15.34C0.72 15.22 0.76 15.12 0.84 15.04C0.92 14.96 1.02 14.92 1.14 14.92H2.92C3.09333 14.92 3.22 14.96 3.3 15.04C3.39333 15.1067 3.47333 15.1933 3.54 15.3C3.62 15.5533 3.77333 15.8067 4 16.06C4.22667 16.3 4.53333 16.5 4.92 16.66C5.32 16.82 5.82 16.9 6.42 16.9C7.38 16.9 8.09333 16.74 8.56 16.42C9.04 16.1 9.28 15.6667 9.28 15.12C9.28 14.7333 9.15333 14.4267 8.9 14.2C8.64667 13.96 8.25333 13.7467 7.72 13.56C7.2 13.36 6.50667 13.1533 5.64 12.94C4.64 12.7 3.8 12.4133 3.12 12.08C2.45333 11.7333 1.94667 11.3 1.6 10.78C1.26667 10.26 1.1 9.6 1.1 8.8C1.1 8.02667 1.30667 7.34 1.72 6.74C2.14667 6.14 2.74667 5.66667 3.52 5.32C4.30667 4.97333 5.24 4.8 6.32 4.8C7.18667 4.8 7.95333 4.92 8.62 5.16C9.28667 5.38667 9.84 5.69333 10.28 6.08C10.72 6.45333 11.0533 6.86 11.28 7.3C11.52 7.72667 11.6467 8.14667 11.66 8.56C11.66 8.66667 11.62 8.76667 11.54 8.86C11.4733 8.94 11.3733 8.98 11.24 8.98H9.38C9.27333 8.98 9.16667 8.95333 9.06 8.9C8.95333 8.84667 8.86667 8.74667 8.8 8.6C8.72 8.18667 8.46 7.83333 8.02 7.54C7.58 7.24667 7.01333 7.1 6.32 7.1C5.6 7.1 5.02 7.23333 4.58 7.5C4.14 7.76667 3.92 8.18 3.92 8.74C3.92 9.11333 4.02667 9.42667 4.24 9.68C4.46667 9.92 4.82 10.1333 5.3 10.32C5.79333 10.5067 6.44 10.7067 7.24 10.92C8.37333 11.1733 9.3 11.4667 10.02 11.8C10.74 12.1333 11.2667 12.56 11.6 13.08C11.9333 13.5867 12.1 14.2333 12.1 15.02C12.1 15.9 11.86 16.6533 11.38 17.28C10.9133 17.8933 10.2533 18.3667 9.4 18.7C8.54667 19.0333 7.55333 19.2 6.42 19.2ZM0.7 43C0.593333 43 0.493333 42.96 0.4 42.88C0.32 42.8 0.28 42.7 0.28 42.58C0.28 42.5267 0.293333 42.4667 0.32 42.4L5.14 29.5C5.18 29.3667 5.25333 29.2533 5.36 29.16C5.48 29.0533 5.64 29 5.84 29H8.02C8.22 29 8.37333 29.0533 8.48 29.16C8.58667 29.2533 8.66667 29.3667 8.72 29.5L13.54 42.4C13.5533 42.4667 13.56 42.5267 13.56 42.58C13.56 42.7 13.52 42.8 13.44 42.88C13.36 42.96 13.2667 43 13.16 43H11.42C11.2333 43 11.0933 42.96 11 42.88C10.92 42.7867 10.8667 42.7 10.84 42.62L9.9 40.18H3.96L3.02 42.62C2.99333 42.7 2.93333 42.7867 2.84 42.88C2.76 42.96 2.62667 43 2.44 43H0.7ZM4.66 37.88H9.2L6.92 31.7L4.66 37.88ZM2.04 67C1.90667 67 1.79333 66.9533 1.7 66.86C1.60667 66.7667 1.56 66.6533 1.56 66.52V53.5C1.56 53.3533 1.60667 53.2333 1.7 53.14C1.79333 53.0467 1.90667 53 2.04 53H6.92C8.26667 53 9.37333 53.2067 10.24 53.62C11.12 54.0333 11.78 54.6467 12.22 55.46C12.6733 56.2733 12.9067 57.2667 12.92 58.44C12.9467 59.0267 12.96 59.5467 12.96 60C12.96 60.4533 12.9467 60.9667 12.92 61.54C12.8933 62.78 12.6667 63.8067 12.24 64.62C11.8133 65.42 11.1667 66.02 10.3 66.42C9.44667 66.8067 8.35333 67 7.02 67H2.04ZM4.34 64.7H6.92C7.66667 64.7 8.27333 64.5933 8.74 64.38C9.20667 64.1667 9.54667 63.8267 9.76 63.36C9.98667 62.88 10.1067 62.2533 10.12 61.48C10.1333 61.08 10.14 60.7333 10.14 60.44C10.1533 60.1333 10.1533 59.8333 10.14 59.54C10.14 59.2333 10.1333 58.8867 10.12 58.5C10.0933 57.4067 9.82 56.6 9.3 56.08C8.78 55.56 7.95333 55.3 6.82 55.3H4.34V64.7Z" fill="white"/>
</svg>
